<svg width="6" height="10" viewBox="0 0 6 10" fill="none" xmlns="http://www.w3.org/2000/svg">
<path d="M5.83147 4.71874L0.800224 0.789049C0.787077 0.778699 0.771278 0.772267 0.75464 0.770491C0.738002 0.768716 0.721201 0.771669 0.706166 0.779012C0.691131 0.786354 0.678472 0.797789 0.669643 0.812002C0.660813 0.826215 0.656172 0.84263 0.656251 0.859362V1.72209C0.656251 1.77677 0.681921 1.82923 0.724331 1.86271L4.74219 4.99999L0.724331 8.13726C0.680805 8.17075 0.656251 8.2232 0.656251 8.27789V9.14061C0.656251 9.21539 0.742188 9.25668 0.800224 9.21092L5.83147 5.28124C5.87424 5.24788 5.90883 5.20521 5.93262 5.15648C5.95642 5.10774 5.96878 5.05422 5.96878 4.99999C5.96878 4.94575 5.95642 4.89223 5.93262 4.8435C5.90883 4.79476 5.87424 4.75209 5.83147 4.71874Z" fill="#3A4045"/>
</svg>
