<svg width="16" height="16" viewBox="0 0 16 16" fill="none" xmlns="http://www.w3.org/2000/svg">
<path d="M15.7588 7.875L8.40349 0.525001C8.35053 0.471937 8.28762 0.429838 8.21837 0.401114C8.14912 0.37239 8.07489 0.357605 7.99992 0.357605C7.92494 0.357605 7.85071 0.37239 7.78146 0.401114C7.71221 0.429838 7.6493 0.471937 7.59634 0.525001L0.240988 7.875C0.026702 8.08929 -0.0947266 8.38036 -0.0947266 8.68393C-0.0947266 9.31429 0.417773 9.82679 1.04813 9.82679H1.82313V15.0714C1.82313 15.3875 2.07849 15.6429 2.39456 15.6429H6.85706V11.6429H8.85706V15.6429H13.6053C13.9213 15.6429 14.1767 15.3875 14.1767 15.0714V9.82679H14.9517C15.2553 9.82679 15.5463 9.70714 15.7606 9.49107C16.2053 9.04464 16.2053 8.32143 15.7588 7.875Z" fill="#5496D4"/>
</svg>
