<svg width="18" height="16" viewBox="0 0 18 16" fill="none" xmlns="http://www.w3.org/2000/svg">
<path d="M6.67855 6.43747H17.3928C17.4911 6.43747 17.5714 6.35711 17.5714 6.25889V5.00889C17.5714 4.91068 17.4911 4.83032 17.3928 4.83032H6.67855C6.58034 4.83032 6.49998 4.91068 6.49998 5.00889V6.25889C6.49998 6.35711 6.58034 6.43747 6.67855 6.43747ZM6.49998 10.991C6.49998 11.0893 6.58034 11.1696 6.67855 11.1696H17.3928C17.4911 11.1696 17.5714 11.0893 17.5714 10.991V9.74104C17.5714 9.64282 17.4911 9.56247 17.3928 9.56247H6.67855C6.58034 9.56247 6.49998 9.64282 6.49998 9.74104V10.991ZM17.75 0.142822H0.249983C0.151768 0.142822 0.0714111 0.223179 0.0714111 0.321394V1.57139C0.0714111 1.66961 0.151768 1.74997 0.249983 1.74997H17.75C17.8482 1.74997 17.9286 1.66961 17.9286 1.57139V0.321394C17.9286 0.223179 17.8482 0.142822 17.75 0.142822ZM17.75 14.25H0.249983C0.151768 14.25 0.0714111 14.3303 0.0714111 14.4285V15.6785C0.0714111 15.7768 0.151768 15.8571 0.249983 15.8571H17.75C17.8482 15.8571 17.9286 15.7768 17.9286 15.6785V14.4285C17.9286 14.3303 17.8482 14.25 17.75 14.25ZM0.749982 10.904L4.23882 8.15622C4.26231 8.13775 4.2813 8.11419 4.29436 8.08732C4.30742 8.06045 4.3142 8.03096 4.3142 8.00108C4.3142 7.9712 4.30742 7.94172 4.29436 7.91484C4.2813 7.88797 4.26231 7.86441 4.23882 7.84595L0.749982 5.09595C0.620518 4.99327 0.428554 5.08479 0.428554 5.24997V10.7477C0.428542 10.785 0.439021 10.8215 0.458793 10.8532C0.478565 10.8848 0.506832 10.9102 0.540362 10.9265C0.573892 10.9428 0.611331 10.9493 0.6484 10.9453C0.68547 10.9413 0.720672 10.927 0.749982 10.904Z" fill="#FEFEFE"/>
</svg>
